# xmcd CD database file
#
# Track frame offsets:
#	150
#	18600
#	31950
#	66900
#	105300
#	130650
#	160800
#
# Disc length: 2448 seconds
#
# Revision: 0
# Processed by: cddbd v1.5.2PL0 Copyright (c) Steve Scherf et al.
# Submitted via: CDex 1.51
#
DISCID=51098e07
DTITLE=Anthony Wonsey - Trio One
DYEAR=2003
DGENRE=Jazz
TTITLE0=Smooth Jazz
TTITLE1=Alregin
TTITLE2=Black Fairy Tales
TTITLE3=Daddy's Home
TTITLE4=Damn the reality
TTITLE5=Lenny's Lens
TTITLE6=79th st
EXTD=YEAR: 2003
EXTT0=
EXTT1=
EXTT2=
EXTT3=
EXTT4=
EXTT5=
EXTT6=
PLAYORDER=
